<svg width="77" height="77" viewBox="0 0 77 77" fill="none" xmlns="http://www.w3.org/2000/svg">
<path d="M56.0859 0C69.0894 0 76.4303 7.37539 76.4686 20.3789V56.0897C76.4686 69.0894 69.0894 76.4686 56.0859 76.4686H20.3789C7.37539 76.4686 0 69.0894 0 56.0897V20.3789C0 7.37539 7.37539 0 20.3789 0H56.0859ZM40.146 15.7908C39.0716 15.1408 37.7717 15.1408 36.7431 15.7908C35.707 16.4369 35.1373 17.626 35.2482 18.8113V57.772C35.4432 59.4161 36.8158 60.6396 38.4216 60.6396C40.0695 60.6396 41.4421 59.4161 41.5951 57.772V18.8113C41.748 17.626 41.1783 16.4369 40.146 15.7908ZM22.2906 28.3316C21.2583 27.6816 19.9545 27.6816 18.926 28.3316C17.8898 28.9816 17.3201 30.163 17.4348 31.3521V57.772C17.5839 59.4161 18.9604 60.6396 20.6045 60.6396C22.2524 60.6396 23.625 59.4161 23.7779 57.772V31.3521C23.8964 30.163 23.3191 28.9816 22.2906 28.3316ZM57.6917 42.2106C56.6632 41.5607 55.3632 41.5607 54.2927 42.2106C53.2565 42.8606 52.6868 44.0038 52.8398 45.2312V57.772C52.9927 59.4161 54.3653 60.6396 56.0132 60.6396C57.6191 60.6396 58.9917 59.4161 59.1867 57.772V45.2312C59.2976 44.0038 58.7279 42.8606 57.6917 42.2106Z" fill="black"/>
</svg>
