<svg width="131" height="230" viewBox="0 0 131 230" fill="none" xmlns="http://www.w3.org/2000/svg">
<path d="M93.9004 63.3542C92.841 62.3071 91.6187 61.3871 90.7645 60.1973C82.8565 49.1161 72.72 40.4428 61.9059 32.5453C52.2687 25.5024 41.8791 19.965 30.5491 16.5756C26.1397 15.259 21.6224 14.3771 16.7323 13.1875C21.4088 9.20089 26.8999 6.25196 29.0872 3.58046e-05C24.6839 3.56144 20.5675 7.57327 15.8019 10.5569C11.0274 13.5467 5.6013 15.5238 2.95283e-05 18.1622C8.63156 22.2949 18.2716 24.6057 23.1505 34.2813C23.908 29.0933 21.0371 26.3744 6.84696 18.1702C9.3234 16.4611 11.5704 15.0499 14.7641 15.4559C32.706 17.7167 48.5911 25.2949 63.1961 36.2256C71.7285 42.6125 79.4885 49.9241 86.4743 57.968C93.5751 66.1392 100.002 74.8067 105.427 84.2964C112.825 97.2123 118.885 110.602 122.957 124.823C127.771 141.652 129.796 158.694 127.282 175.795C124.493 194.858 117.05 211.681 103.951 225.511C103.151 226.358 102.425 227.292 101.723 228.223C101.581 228.419 101.666 228.788 101.63 229.27C102.951 230.218 103.759 229.172 104.496 228.424C111.765 221.07 117.452 212.563 121.768 203.075C130.633 183.616 132.185 162.965 128.98 141.545C126.422 124.459 120.435 108.417 112.922 92.8436C111.602 90.1103 109.629 87.6932 108.061 85.0776C107.387 83.9563 107.002 82.6612 106.483 81.4592C102.297 75.4232 98.102 69.3934 93.9004 63.3542Z" fill="black" fill-opacity="0.6"/>
</svg>
