<svg width="225" height="205" viewBox="0 0 225 205" fill="none" xmlns="http://www.w3.org/2000/svg">
<path d="M152.858 127.343C154.102 127.629 154.132 128.54 154.012 129.55C153.948 130.101 153.741 130.753 153.939 131.204C154.897 133.342 154.027 134.866 152.461 136.216C152.186 136.456 151.897 136.673 151.648 136.873C151.602 137.076 151.526 137.226 151.556 137.353C152.402 141.123 149.759 144.03 146.52 144.896C144.884 145.332 143.262 145.629 141.56 145.332C138.995 144.887 136.953 143.871 136.472 140.963C134.449 140.6 132.221 140.814 131.018 138.698C130.357 137.531 129.87 136.319 130.492 134.994C127.906 132.579 127.848 132.11 129.637 128.331C128.473 125.653 127.345 122.961 126.13 120.313C125.755 119.501 125.463 118.647 124.226 118.471C117.209 117.485 112.402 113.386 109.246 107.267C106.019 101.014 105.015 94.3549 106.797 87.5116C108.411 81.3111 112.35 76.7159 117.638 73.174C123.604 69.1775 130.104 68.0402 137.079 69.3008C142.054 70.2044 146.688 71.9949 150.4 75.5224C156.746 81.5493 159.382 88.972 158.323 97.6872C157.644 103.248 155.289 108.001 151.497 112.091C150.96 112.67 150.554 113.369 150.077 114.02C150.87 116.003 151.698 117.871 152.368 119.792C153.19 122.14 152.949 122.699 150.654 123.679C149.387 124.222 148.037 124.588 146.698 124.941C141.973 126.188 137.258 127.462 132.501 128.565C131.08 128.896 130.411 129.878 129.774 130.861C128.975 132.106 130.102 133.657 131.738 133.666C132.457 133.671 133.208 133.539 133.896 133.317C139.381 131.574 144.988 130.15 150.121 127.449C151.089 126.941 152.063 126.391 152.9 125.701C153.508 125.199 153.893 124.431 154.339 123.835C154.926 124.657 154.933 125.267 154.142 126.157C153.766 126.581 153.331 126.957 152.927 127.354C146.501 130.543 139.826 133.073 132.82 134.659C131.812 134.89 131.489 135.353 131.767 136.528C132.568 136.505 133.372 136.605 134.111 136.429C138.369 135.426 142.651 134.478 146.841 133.251C148.623 132.73 150.308 131.694 151.869 130.649C152.941 129.942 153.843 128.832 152.858 127.343ZM143.708 124.522C145.82 123.943 147.952 123.452 150.02 122.753C151.699 122.185 151.869 121.73 151.307 120.16C150.845 118.859 150.371 117.539 149.709 116.328C148.652 114.398 149.122 112.834 150.564 111.387C150.821 111.126 151.078 110.865 151.312 110.585C157.413 103.325 159.034 95.0941 156.074 86.165C153.376 78.0378 147.462 73.085 139.261 70.9391C129.558 68.3991 120.994 70.5899 113.882 77.7386C110.524 81.1137 108.085 85.0493 107.446 89.9282C106.476 97.2874 107.939 104.014 112.363 110.047C115.363 114.135 119.266 116.724 124.344 117.317C125.616 117.467 126.33 118.052 126.807 119.138C127.599 120.945 128.396 122.749 129.229 124.539C129.746 125.652 130.329 126.727 130.906 127.868C133.04 127.25 134.982 126.693 136.879 126.144C136.903 125.892 136.969 125.734 136.926 125.615C135.562 121.918 134.301 118.18 132.786 114.545C131.381 111.178 129.13 108.42 125.957 106.476C124.84 105.791 123.746 105.036 122.744 104.191C119.698 101.622 119.998 98.9898 123.494 97.1032C123.684 96.9992 123.888 96.9067 124.093 96.8263C126.032 96.0455 128.16 95.908 130.09 95.0134C130.793 94.6889 131.824 94.9531 132.675 95.1016C133.226 95.1975 133.735 95.5685 134.108 95.7481C136.595 92.5373 137.669 92.4315 141.438 94.7655C141.847 94.5292 142.279 94.2672 142.722 94.024C144.765 92.9133 146.102 93.3271 147.233 95.3838C148.381 97.4808 147.676 99.3995 146.53 101.152C145.498 102.733 144.343 104.284 143.016 105.615C140.79 107.854 140.502 110.441 141.146 113.306C141.991 116.995 142.835 120.685 143.708 124.522ZM126.832 97.1705C125.89 97.451 125.107 97.5831 124.416 97.9069C121.246 99.3919 120.994 101.237 123.692 103.487C124.809 104.423 126.047 105.22 127.275 106.01C129.794 107.635 131.767 109.77 133.061 112.448C134.168 114.744 135.083 117.133 136 119.514C136.773 121.538 137.426 123.614 138.184 125.829C139.785 125.451 141.169 125.122 142.647 124.771C142.519 124.048 142.441 123.478 142.308 122.922C141.57 119.873 140.767 116.843 140.075 113.786C139.333 110.501 139.45 107.379 142.154 104.871C142.684 104.377 143.171 103.819 143.588 103.227C144.508 101.919 145.422 100.601 146.247 99.2273C146.849 98.2275 146.753 97.1162 146.336 96.0461C145.878 94.8616 145.004 94.3372 143.997 94.624C142.63 95.0054 142.099 95.8015 142.306 97.1494C142.353 97.4363 142.455 97.7222 142.47 98.0085C142.526 99.0613 142.026 99.6949 141.186 99.6528C140.322 99.6122 139.846 98.9715 139.98 97.9656C140.029 97.605 140.122 97.2441 140.245 96.9033C140.576 95.978 140.175 95.3815 139.443 94.8633C137.819 93.7123 136.451 94.2008 135.645 96.2594C136.098 96.8261 136.576 97.3717 136.996 97.9574C137.49 98.6505 137.833 99.4939 137.132 100.149C136.655 100.594 135.733 101.051 135.258 100.868C134.652 100.634 134.107 99.8197 133.879 99.1423C133.644 98.4311 133.817 97.5787 133.814 96.6516C132.422 96.3142 131.136 95.5323 129.752 96.4817C130.328 97.479 130.931 98.3165 131.315 99.2426C131.787 100.375 131.354 101.396 130.511 102.228C129.737 102.995 128.307 103.256 127.463 102.827C126.369 102.268 126.225 101.247 126.303 100.198C126.37 99.3374 126.594 98.4868 126.832 97.1705ZM153.14 131.439C146.698 135.567 139.254 136.352 131.985 138.058C133.09 139.722 134.717 139.78 136.277 139.538C139.727 138.995 143.165 138.334 146.583 137.596C147.922 137.306 149.225 136.761 150.468 136.175C152.701 135.111 153.466 133.71 153.14 131.439ZM137.663 140.777C137.823 142.553 138.917 143.427 140.509 143.925C143.017 144.717 145.429 144.309 147.734 143.304C149.873 142.37 151.017 139.81 150.56 137.79C146.273 138.785 141.979 139.778 137.663 140.777ZM129.607 98.4033C129.479 98.3331 128.963 97.8409 128.439 97.8358C128.169 97.835 127.825 98.6733 127.634 99.1788C127.482 99.5676 127.39 100.06 127.496 100.45C127.625 100.946 127.882 101.651 128.25 101.778C128.672 101.923 129.409 101.667 129.773 101.331C130.566 100.597 130.523 99.6747 129.607 98.4033ZM135.316 100.025C136.568 98.7375 136.552 98.6776 134.872 97.8098C135.021 98.5456 135.133 99.1205 135.316 100.025Z" fill="#9378F9"/>
<path d="M91.0754 134.417C88.4182 137.626 85.9514 140.926 84.4055 144.81C82.881 148.645 82.0694 152.639 81.7757 156.747C81.4795 160.895 81.477 165.03 82.1452 169.229C84.442 164.961 85.3943 160.027 88.738 156.334C86.4391 162.391 83.6785 168.256 81.9255 174.813C81.0517 171.648 78.2611 170.324 76.488 168.111C75.8674 167.34 75.2099 166.603 74.7496 165.665C77.1499 166.65 78.4738 168.922 80.8096 170.534C80.7943 169.671 80.8185 169.061 80.7606 168.461C80.1791 162.097 80.2641 155.77 81.7381 149.512C82.9853 144.219 85.3244 139.482 88.9844 135.424C89.7039 134.639 89.691 134.627 91.0754 134.417Z" fill="#9378F9"/>
<path d="M222.265 114.268C218.447 114.879 214.961 115.436 211.263 116.028C212.1 114.435 213.616 114.638 214.825 114.31C216.142 113.951 217.495 113.741 219.317 113.366C215.536 112.206 212.232 111.09 208.876 110.187C204.93 109.122 200.962 108.094 196.949 107.313C194.166 106.774 191.303 106.476 188.469 106.445C186.725 106.423 184.975 107.107 183.117 107.496C182.842 106.846 183.472 106.557 183.909 106.305C185.91 105.174 188.144 105.057 190.312 105.292C193.791 105.668 197.311 106.05 200.686 106.931C207.042 108.586 213.31 110.6 219.618 112.453C219.729 112.483 219.879 112.383 220.274 112.275C219.324 109.706 217.531 107.579 216.619 105.032C219.635 107.387 220.999 110.727 222.265 114.268Z" fill="#9378F9"/>
<path d="M152.242 10.6932C154.635 7.17894 157.024 3.67952 159.509 0.0307627C160.822 1.71878 161.12 3.918 162.034 5.81733C162.963 7.74018 163.737 9.73311 164.379 11.79C162.669 10.0673 161.694 7.93314 160.631 5.25424C156.839 16.2435 153.712 26.874 153.751 38.2175C152.479 38.2744 152.62 37.4214 152.65 36.8769C152.797 34.2519 152.929 31.6229 153.245 29.0194C154.177 21.3558 156.507 14.039 158.922 6.74886C159.15 6.05857 159.518 5.41348 159.827 4.75249C160.212 3.92136 160.126 3.2062 159.303 2.59606C157.082 5.36504 155.63 8.71813 152.769 10.9536C152.713 10.9984 152.521 10.8395 152.242 10.6932Z" fill="#9378F9"/>
<path d="M96.5197 73.0348C95.4462 73.4351 94.9233 72.6707 94.2688 72.3084C89.8616 69.8789 85.5179 67.3311 81.0279 65.0623C78.3173 63.6918 75.3822 62.7582 72.216 61.5002C72.5489 63.4783 74.0116 64.6974 73.7078 66.811C72.2838 65.5507 72.0604 63.936 71.1478 62.8007C70.2196 61.6493 69.3692 60.4154 68.3015 59.4135C67.2081 58.3888 65.8947 57.5915 64.5786 56.6265C70.9202 56.9419 77.1203 57.2512 83.3669 57.565C81.9277 58.4837 81.7528 58.5282 76.3029 58.4319C73.9007 58.3887 71.5053 58.2161 68.9963 58.0965C69.628 59.3752 70.5276 60.01 71.8175 60.3755C79.8226 62.6596 87.1371 66.4527 94.1478 70.8603C95.0181 71.4116 96.0778 71.8348 96.5197 73.0348Z" fill="#9378F9"/>
<path d="M31.9185 135.685C33.5002 134.546 35.0201 133.311 36.6689 132.278C46.6057 126.077 57.1984 121.153 67.8624 116.363C68.0023 116.301 68.2537 116.476 68.5196 116.567C68.3703 117.688 67.3799 117.852 66.6605 118.193C63.4964 119.687 60.2962 121.108 57.1077 122.56C49.7118 125.927 42.7263 130.048 35.747 134.19C34.5818 134.888 33.6686 136.055 31.9185 135.685Z" fill="#9378F9"/>
<path d="M27.2147 139.26C27.9685 135.601 33.8556 128.263 39.664 123.549C39.4393 124.832 38.9488 125.58 37.6104 127.042C35.3448 129.517 33.0846 132.001 30.896 134.544C30.0997 135.468 29.5164 136.577 28.6323 137.902C32.6878 137.919 36.1754 136.746 39.801 135.845C39.7735 136.319 39.8242 136.678 39.7435 136.712C35.8075 138.401 31.6559 139.055 27.2147 139.26Z" fill="#9378F9"/>
<path d="M165.119 80.6475C169.791 76.3321 174.356 71.8649 180.775 70.1532C180.878 70.276 180.987 70.4009 181.09 70.5237C180.854 70.8105 180.671 71.2546 180.366 71.3557C175.042 73.1939 171.015 76.9741 166.726 80.3661C166.342 80.669 165.875 80.8699 165.447 81.117C165.342 80.9578 165.233 80.8013 165.119 80.6475Z" fill="#9378F9"/>
<path d="M125.86 60.1349C125.3 57.9928 124.623 55.8748 124.218 53.7063C123.735 51.1313 123.466 48.5142 123.166 45.9087C123.089 45.2441 123.013 44.4163 124.284 44.1843C123.968 49.6668 126.037 54.7385 126.408 60.0314C126.225 60.0618 126.045 60.097 125.86 60.1349Z" fill="#9378F9"/>
<path d="M80.6799 85.4164C81.1915 85.3029 81.7099 85.0601 82.2086 85.0983C86.0985 85.4367 89.948 85.9552 93.5203 87.6123C93.4927 87.76 93.465 87.9076 93.4327 88.058C89.2278 87.337 85.0203 86.6112 80.8154 85.8901C80.7696 85.7347 80.721 85.5745 80.6799 85.4164Z" fill="#9378F9"/>
<path d="M179.46 102.413C179.076 102.584 178.766 102.839 178.47 102.827C176.613 102.771 167.122 99.8142 165.917 98.9666C167.463 98.7643 177.901 101.375 179.46 102.413Z" fill="#9378F9"/>
<path d="M150.524 61.093C152.216 57.0927 155.698 53.5203 158.709 52.8358C158.375 54.3648 156.711 54.3722 156.026 55.4135C155.279 56.5535 154.254 57.5155 153.351 58.5578C152.515 59.523 151.682 60.4807 150.847 61.4459C150.735 61.3285 150.631 61.2131 150.524 61.093Z" fill="#9378F9"/>
<path d="M100.135 108.89C97.9183 112.189 95.2719 114.645 92.7946 117.242C92.694 117.35 92.3018 117.182 92.0044 117.134C93.0266 115.026 97.9636 109.942 100.135 108.89Z" fill="#9378F9"/>
<path d="M105.705 67.6939C102.718 65.6927 99.7338 63.6961 96.7602 61.6745C96.6561 61.6029 96.7267 61.2799 96.6967 60.739C100.583 62.0705 103.231 64.7444 105.993 67.2581C105.899 67.4 105.803 67.5493 105.705 67.6939Z" fill="#9378F9"/>
</svg>
