<svg width="77" height="58" viewBox="0 0 77 58" fill="none" xmlns="http://www.w3.org/2000/svg">
<path d="M37.8714 0C47.1319 0 53.5974 6.38144 53.5974 15.5266V41.8248C53.5974 50.97 47.1319 57.3514 37.8714 57.3514H15.7259C6.46548 57.3514 0 50.97 0 41.8248V15.5266C0 6.38144 6.46548 0 15.7259 0H37.8714ZM68.661 9.09588C70.3395 8.24191 72.3086 8.33119 73.9107 9.34042C75.5127 10.3458 76.4686 12.0925 76.4686 14.0023V43.3515C76.4686 45.2651 75.5127 47.008 73.9107 48.0133C73.0351 48.5606 72.0563 48.8401 71.0698 48.8401C70.2478 48.8401 69.4257 48.646 68.6572 48.254L62.9947 45.3971C60.8994 44.3335 59.5994 42.1986 59.5994 39.8269V17.5229C59.5994 15.1474 60.8994 13.0125 62.9947 11.9567L68.661 9.09588Z" fill="black"/>
</svg>
